/* XPM */
static char *_5d665fc74d14455970da982b4f3e61djt0tTkE1cXdxNFSH[] = {
/* columns rows colors chars-per-pixel */
"16 16 198 2 ",
"   c None",
".  c #F1585C",
"X  c #F2585C",
"o  c #E4676B",
"O  c #E6686B",
"+  c #FA6467",
"@  c #EB6D71",
"#  c #FE7276",
"$  c #F5787C",
"%  c #EEA73D",
"&  c #EFA93E",
"*  c #FEB234",
"=  c #FBBE3E",
"-  c #FFC639",
";  c #B39658",
":  c #AAA179",
">  c #C09B53",
",  c #EBA641",
"<  c #EEAB45",
"1  c #E2AA58",
"2  c #EBAA5A",
"3  c #D29069",
"4  c #CBAB61",
"5  c #E7AC67",
"6  c #EAB261",
"7  c #EFB864",
"8  c #F6BE6A",
"9  c #E2AE7C",
"0  c #E7B672",
"q  c #FCC65C",
"w  c #FDD858",
"e  c #FDDC5C",
"r  c #F6C16F",
"t  c #FAD567",
"y  c #FAD56E",
"u  c #FEE868",
"i  c #FDEA6B",
"p  c #FDED6D",
"a  c #FEEF70",
"s  c #FCE879",
"d  c #FCEC7E",
"f  c #9C7A99",
"g  c #AC7D95",
"h  c #B768AB",
"j  c #FF7E82",
"k  c #66ADE9",
"l  c #6AB3F1",
"z  c #7CC6FD",
"x  c #B09C85",
"c  c #ACA491",
"v  c #9181A4",
"b  c #858EB5",
"n  c #AAA3AB",
"m  c #DB9680",
"M  c #FE878B",
"N  c #CABF8D",
"B  c #C69BA1",
"V  c #D29BA9",
"C  c #DD9AAF",
"Z  c #DA9EB5",
"A  c #C7A6AF",
"S  c #D2A4BE",
"D  c #E0AEB6",
"F  c #E9AAB0",
"G  c #E6A9B9",
"H  c #B4C1B9",
"J  c #D7C48E",
"K  c #FACC88",
"L  c #FDCF8B",
"P  c #FED18E",
"I  c #FAD090",
"U  c #FBD191",
"Y  c #FFD692",
"T  c #FED696",
"R  c #FFDF9F",
"E  c #FFE19D",
"W  c #CFC8AB",
"Q  c #DEC7AE",
"!  c #CCC9B2",
"~  c #CEC8B2",
"^  c #CFC9B4",
"/  c #D7CDB0",
"(  c #D0C9B4",
")  c #DACBB8",
"_  c #F9DBA1",
"`  c #E0D8B2",
"'  c #E9DFB3",
"]  c #FCDFB3",
"[  c #FFEAAB",
"{  c #E6E2BD",
"}  c #EDE6BA",
"|  c #FEE1B5",
" . c #FEE4B9",
".. c #FFE5B9",
"X. c #FBE4BF",
"o. c #FFE8BD",
"O. c #FFE9BE",
"+. c #FFF4B4",
"@. c #99B3D5",
"#. c #D08CC4",
"$. c #C3ADCD",
"%. c #DBBFC0",
"&. c #F1BEC7",
"*. c #F4BCC4",
"=. c #ADC8D9",
"-. c #B6CCDB",
";. c #8ED8FF",
":. c #AACFE9",
">. c #BCC4E5",
",. c #A8D9F5",
"<. c #A9DEFD",
"1. c #AFDEFF",
"2. c #BDDEF9",
"3. c #9AE3FF",
"4. c #B6E3FB",
"5. c #B6E2FF",
"6. c #B7E4FC",
"7. c #CBCCCF",
"8. c #D0D5C6",
"9. c #DAC5D7",
"0. c #C5DCD5",
"q. c #C6D8DD",
"w. c #E3CAC9",
"e. c #E6D1CE",
"r. c #E2C7DD",
"t. c #F5CED3",
"y. c #F7D0D0",
"u. c #F4D2D7",
"i. c #F7D5D5",
"p. c #F7D5D6",
"a. c #FAD5D7",
"s. c #F8D6D6",
"d. c #F6D3D8",
"f. c #F1D8DF",
"g. c #F4D8DC",
"h. c #FAD8D9",
"j. c #FDDCDC",
"k. c #ECE5C5",
"l. c #EFE9C4",
"z. c #ECE8C8",
"x. c #FBE6C1",
"c. c #F0E9C5",
"v. c #FAE7C9",
"b. c #F8E7CC",
"n. c #F1EBC9",
"m. c #FCE9CC",
"M. c #E2E6D1",
"N. c #E9E1D2",
"B. c #ECE4D2",
"V. c #EEE6D2",
"C. c #E7EBD9",
"Z. c #FBECD2",
"A. c #C3DCE3",
"S. c #D4D4E7",
"D. c #E8CDE4",
"F. c #EFCDE9",
"G. c #E6DEE9",
"H. c #EAD9EA",
"J. c #F0D6EB",
"K. c #F4DAEF",
"L. c #F4DAF0",
"P. c #DEEBE1",
"I. c #D5EBED",
"U. c #DAECEA",
"Y. c #C8E6F7",
"T. c #C0E7FF",
"R. c #CBE6FA",
"E. c #C8E9FD",
"W. c #CCEBFF",
"Q. c #D5E5F6",
"!. c #D9E4F5",
"~. c #D1EAF3",
"^. c #D0EBF8",
"/. c #D0E8FA",
"(. c #D4F3FF",
"). c #F9E7EB",
"_. c #F7F4E7",
"`. c #F8F7EC",
"'. c #FBF7EF",
"]. c #F9FBEF",
"[. c #F6E1F2",
"{. c #F6E2F3",
"}. c #FAEEF0",
"|. c #FCEFF2",
" X c #FAFDF0",
".X c #FBFDF0",
"XX c #FAF8FA",
"oX c #FDF8F8",
"OX c #FDF9F9",
"+X c #FEF9FA",
"@X c #FEFAFA",
"#X c #FEFAFB",
"$X c #FEFBFB",
"%X c #FDFEF8",
"&X c #FDFDFE",
"*X c #FDFEFE",
"=X c #FFFEFE",
"-X c white",
/* pixels */
"          { C.P.I.^.6.          ",
"      ' c.J 4 > ; : H ~.<.      ",
"    k.` ^ V.Z.m.v.b.N.-.A.6.    ",
"  w.Q ) h ).X X + # j a.N q.,.  ",
"  g.3 x.XX=XoXoX#XoX=X=Xy n U.  ",
"*.G 5  .k _.- w i p i e = A 8.0.",
"d.C 6 ] l `.t F.K.L.J.D.r.9.! M.",
"f.Z 7 | z ].s [.=X=X=X=X=X=X! z.",
"G.S 8  .;..Xd [.=X=X=X=X=X=X^ l.",
"!.$.r O.3..Xp _ E Y L K P '.W n.",
"2.>.0 O.(.%X+.[ [ Y U I * %./ } ",
"  /.x X.#.|.M $ O O o y.q B V.  ",
"  1.=.7.G.#Xj.a.a.a.a.oX9 S e.  ",
"    T.:.c 1 < < % , 5 3 F t.    ",
"      1.Y.@.b f f g V u.y.      ",
"          5.E.R.R.!.S.          "
};
