/* XPM */
static char *d9309af34ea3410fbd67fe2e4830a9b6Ax6rx6J7VcVUCt5p[] = {
/* columns rows colors chars-per-pixel */
"32 32 226 2 ",
"   c None",
".  c #DB292E",
"X  c #DC2A30",
"o  c #E8363B",
"O  c #E02D32",
"+  c #EE3D41",
"@  c #F03E43",
"#  c #AE787D",
"$  c #B17D7E",
"%  c #B36A7D",
"&  c #F54348",
"*  c #FD4C52",
"=  c #FF565C",
"-  c #CF7D5F",
";  c #FF5E62",
":  c #CD6F73",
">  c #E86D78",
",  c #F27275",
"<  c #FA777A",
"1  c #F86F73",
"2  c #E98C05",
"3  c #E68C0A",
"4  c #EF9208",
"5  c #F4970B",
"6  c #E38C12",
"7  c #F59A12",
"8  c #FA9E16",
"9  c #FDA41A",
"0  c #FEA518",
"q  c #CD8E2C",
"w  c #C38C3A",
"e  c #D6932D",
"r  c #E3942B",
"t  c #F5A224",
"y  c #FCA824",
"u  c #FFB429",
"i  c #FEBB32",
"p  c #FCB339",
"a  c #EBA03B",
"s  c #FEC539",
"d  c #B89454",
"f  c #BEA058",
"g  c #9C8A6B",
"h  c #9E9D7F",
"j  c #B1926D",
"k  c #B9AA71",
"l  c #D1934A",
"z  c #CBA052",
"x  c #F7BB45",
"c  c #E3AC5A",
"v  c #CAB570",
"b  c #F9BF67",
"n  c #FBC845",
"m  c #FFD549",
"M  c #FDCF55",
"N  c #FEDD54",
"B  c #FDD65D",
"V  c #FFE95C",
"C  c #FFE55B",
"Z  c #D6C77A",
"A  c #FCC36B",
"S  c #FBDD68",
"D  c #F4C276",
"F  c #FFCB75",
"G  c #FCCC7D",
"H  c #F7C67A",
"J  c #FFD37C",
"K  c #FFEB67",
"L  c #FFF364",
"P  c #FFF569",
"I  c #FCEA74",
"U  c #7A7FC2",
"Y  c #9F308D",
"T  c #B1409E",
"R  c #957E90",
"E  c #A37E88",
"W  c #8778B4",
"Q  c #9B7BAB",
"!  c #BC6EB0",
"~  c #D6738C",
"^  c #CB758D",
"/  c #C179AB",
"(  c #688DB5",
")  c #6E92D0",
"_  c #499FE8",
"`  c #50A4EB",
"'  c #5AB0F9",
"]  c #7DB8E8",
"[  c #6EB6F0",
"{  c #6BC3FB",
"}  c #74C5FF",
"|  c #7BC9FB",
" . c #7CD2FF",
".. c #839396",
"X. c #B38389",
"o. c #94A698",
"O. c #94A08A",
"+. c #BDA788",
"@. c #BEB183",
"#. c #BDB088",
"$. c #B3B796",
"%. c #8894AD",
"&. c #B69FA9",
"*. c #B88EB1",
"=. c #98A6B5",
"-. c #8CADBD",
";. c #AFB3B4",
":. c #C78E93",
">. c #FE8688",
",. c #E58996",
"<. c #F59099",
"1. c #D7B88D",
"2. c #CBB396",
"3. c #E3BD9A",
"4. c #C594BE",
"5. c #D08DA2",
"6. c #E391A1",
"7. c #D6A8A4",
"8. c #D6B2A6",
"9. c #C7BEB9",
"0. c #C8ABAC",
"q. c #EDA7AB",
"w. c #F2ACAD",
"e. c #F8A8AA",
"r. c #E4B4BC",
"t. c #FAB6B7",
"y. c #F1A9B0",
"u. c #BFC592",
"i. c #A3C0BE",
"p. c #D5C687",
"a. c #DBCB95",
"s. c #D1C98E",
"d. c #F3CB85",
"f. c #F6C883",
"g. c #FAD487",
"h. c #EBC896",
"j. c #F5CF94",
"k. c #E1D598",
"l. c #F6D798",
"z. c #FAE495",
"x. c #FDE798",
"c. c #D3CBA4",
"v. c #DAD3A1",
"b. c #DCC5B7",
"n. c #CACCB3",
"m. c #E5D9A6",
"M. c #F7DBA5",
"N. c #E7CBB7",
"B. c #E8D9BC",
"V. c #E3CCA2",
"C. c #EBE5B7",
"Z. c #E9E1AA",
"A. c #83BAD2",
"S. c #8AA3D1",
"D. c #AFA9CB",
"F. c #8ABBEA",
"G. c #8EBDEB",
"H. c #C8A7C4",
"J. c #D1A4C5",
"K. c #C9B3C6",
"L. c #D9ACD2",
"P. c #D4B8D0",
"I. c #F4BAC1",
"U. c #E6BADE",
"Y. c #E2B5DA",
"T. c #E1BCCB",
"R. c #E8BCE1",
"E. c #BBDADB",
"W. c #AACED5",
"Q. c #8AC5EA",
"!. c #87C9F7",
"~. c #86D6FE",
"^. c #9BDAFD",
"/. c #9AD7FF",
"(. c #98CDF3",
"). c #A8D7ED",
"_. c #B5DCE9",
"`. c #A8DAFA",
"'. c #B0CFF0",
"]. c #8DE3FF",
"[. c #9EE8FF",
"{. c #A7E3FF",
"}. c #B6E5FF",
"|. c #CACBC8",
" X c #C6DACD",
".X c #D9C5DA",
"XX c #D7D9D8",
"oX c #C7D2DE",
"OX c #F8C6C7",
"+X c #E8D6C2",
"@X c #F0DFC3",
"#X c #F6D4D8",
"$X c #E4C5D3",
"%X c #F7E6C8",
"&X c #F1ECDC",
"*X c #FBF6DA",
"=X c #FFFBDE",
"-X c #FFF1D2",
";X c #E5E9CC",
":X c #C6D4E9",
">X c #DDD1E2",
",X c #EDC3E5",
"<X c #E9CAE4",
"1X c #E1D4E2",
"2X c #DBE6E5",
"3X c #CAEBFA",
"4X c #DCF3FC",
"5X c #D7E2F8",
"6X c #E8E6E9",
"7X c #FCE2E4",
"8X c #F8E7EB",
"9X c #FDFCE3",
"0X c #F8F7EA",
"qX c #F5ECF4",
"wX c #F9EEF7",
"eX c #E4F4FB",
"rX c #EDF6FC",
"tX c #EAF9FE",
"yX c #F6F4F6",
"uX c #FCF3F4",
"iX c #FDFDF5",
"pX c #F1F6FB",
"aX c #FBF3FA",
"sX c #F5FBFD",
"dX c #FEFEFE",
"fX c #E6F0EB",
/* pixels */
"                        u.n. XE._.).(.|                         ",
"                  Z C.9XdXdX0X0X0XiXdXiX4X{.}                   ",
"              Z C.dX0Xm.Z k k h h O.o.i.:XtXsX}.{               ",
"            k.iX*Xp.f z z l e q q q w d g ..W.rXtX~.            ",
"          C.iXZ.v $.b.m.M.M.l.j.j.h.j.h.N.c.;.A.3XsX[.          ",
"        B.iXk.$.XXfXuXdXdXdXdXdXdXdXdXdXdXsXeX:X-.E.dX^.        ",
"      b.iX3.k 1X4.! uX8X< , , , , < c ~ >.<.t.yXc.O.E.sX!.      ",
"    5.uX+Xj 1.aX! Y qX#X& o + & * = ; ; 1 < e.dXz.v %.2XtX[     ",
"    #XqX^ l j.dXpXqXdXdXuXuXuXuXuXuXuXaXaXuXdXdXz.n &.-.yX_.    ",
"  ,.dXq.:.a J dXdXdXdXdXdXdXdXdXdXdXdXdXdXdXdXdXz.s 7.=. XsXA.  ",
"  I.uX~ 8.t F dXF.` rX-Xu s m N C K K P P K C N n i 0.&.$.iXE.  ",
"  8XI.5.b.8 A dX] _ rX-Xs n B S I I I I I K S M x p 7.;.;.;XfX  ",
",.dX<.J.N.5 b dX] ` pX=Xm H R.,X,X,X,X,XU.U.Y.L.J.J.4.K.|.c.iX$.",
"q.dX~ P.B.4 A dX| ' pX=XN g.,XuXwXaXaXwXaXaXqXqXwXqX6X6X X2.dXu.",
"r.uX~ .XB.4 A dX!.[ sX=XV z.<XdXdXdXdXdXdXdXdXdXdXdXdXdXXX@.iXv.",
"T.wX~ <X@X4 A dX!.} sX9XL z.,XdXdXdXdXdXdXdXdXdXdXdXdXdX2X#.9Xv.",
"P.uX/ >XB.5 F dX^. .sX9XP z.,XdXdXdXdXdXdXdXdXdXdXdXdXdX6X#.9Xv.",
"oXiX/ >X%X0 F dX{.~.sX9XP x.,XdXdXdXdXdXdXdXdXdXdXdXdXdXXX@.iXk.",
"W.dX*..X@X0 J dX{.].sX=XP z.R.dXdXdXdXdXdXdXdXdXdXdXdXsXXXv dXk.",
"F.dXD.P.@X9 J dX{.].sX=XL V N m n i u y 0 8 7 7 9 y %XiX|.p.iXZ ",
"  rX:XD.N.y J dX}.[.sX9XK K B M n p u y y t t t 0 0 N.1X9.m.0X  ",
"  }.pXS.|.t g.dXdXdXdXdXdXdXdXdXdXdXdXdXdXdXdXdXF y 7.K.#.*XC.  ",
"  | dXG.;.r G dX<XY.dXuXOXt.t.t.w.e.q.q.q.q.OXdXJ i 7.&.2.iXa.  ",
"    3XrX) l 3.dX/ T wX7X= * & o o O . . . . > dXg.x 7.X.0X&X    ",
"    } sX`...1.qX$XL.dXuXt.t.t.y.w.y.y.y.q.e.OXdXg.c E r.dX8.    ",
"      `.dXQ.%.5XyXiXdXdXdXdXdXdXdXdXdXsXdXdXdXwX3.- ,.dXOX      ",
"        }.sX!.S.2.3.f.H G H H H D D b b H d.3.7.^ ,.dX#X        ",
"          }.sX).( g w q 6 3 2 2 2 2 2 3 r l - : y.dX#X>         ",
"            `.sX4X] ( %.R E $ # $ $ # # % : ,.7XdXI.            ",
"              } 3XdX4X(.] ) ) ) W W Q *.T.qXsX7X6.              ",
"                  | }.rXwXsXtXeXeXrXsXdXsX>X0.                  ",
"                        !./.`.`.`.'.'.G.                        "
};
