/* XPM */
static char *c3e52af7944e4e209a1b1cd5302fd1c0GnhDNBYrxhKjZoHZ[] = {
/* columns rows colors chars-per-pixel */
"64 64 252 2 ",
"   c None",
".  c #DB292E",
"X  c #DE2C31",
"o  c #E9373C",
"O  c #E12F34",
"+  c #EE3C41",
"@  c #F13F43",
"#  c #B67550",
"$  c #BA716F",
"%  c #DE4D51",
"&  c #DE5355",
"*  c #F64449",
"=  c #FE4D52",
"-  c #E4595B",
";  c #FF565A",
":  c #E04F52",
">  c #D85667",
",  c #D85A74",
"<  c #C75971",
"1  c #FF5D62",
"2  c #E2596E",
"3  c #D5627B",
"4  c #C87170",
"5  c #FB666A",
"6  c #E66576",
"7  c #FF6D71",
"8  c #FE7478",
"9  c #E96568",
"0  c #BC8A3C",
"q  c #DB8B1A",
"w  c #DE921E",
"e  c #EC8E02",
"r  c #E48B09",
"t  c #ED9108",
"y  c #F39304",
"u  c #F3960A",
"i  c #FB9B0C",
"p  c #F79809",
"a  c #E99317",
"s  c #F79B14",
"d  c #E08B11",
"f  c #FFA214",
"g  c #FFAA1C",
"h  c #FDA41B",
"j  c #FFA00F",
"k  c #D08F30",
"l  c #E99B2A",
"z  c #EB9B31",
"x  c #FEAC23",
"c  c #F9A628",
"v  c #FEB52B",
"b  c #FFB627",
"n  c #E4A33A",
"m  c #F6AB35",
"M  c #FCB937",
"N  c #EBA02C",
"B  c #FFCC3C",
"V  c #FFC435",
"C  c #FFC02F",
"Z  c #B8985B",
"A  c #B28C51",
"S  c #968B73",
"D  c #AB9468",
"F  c #B4906A",
"G  c #B7A876",
"H  c #B9AC6F",
"J  c #C79446",
"K  c #C48659",
"L  c #C79959",
"P  c #D58E50",
"I  c #C9B459",
"U  c #D1A650",
"Y  c #F5AE41",
"T  c #F6B647",
"R  c #EBB354",
"E  c #CF926B",
"W  c #C3AA65",
"Q  c #C4B463",
"!  c #D4B963",
"~  c #D3AF64",
"^  c #E69B48",
"/  c #FCC846",
"(  c #FFD343",
")  c #FFDC4B",
"_  c #FDD54B",
"`  c #FED958",
"'  c #F5C656",
"]  c #FFE453",
"[  c #FFEC5B",
"{  c #FFE659",
"}  c #FFE857",
"|  c #D6CA78",
" . c #D6C669",
".. c #F9D478",
"X. c #F7D06C",
"o. c #FFE867",
"O. c #FFF463",
"+. c #FFF669",
"@. c #FFF371",
"#. c #FFE67A",
"$. c #D4C25C",
"%. c #776FB6",
"&. c #7F7587",
"*. c #5A7ACE",
"=. c #A63995",
"-. c #A1318E",
";. c #9D2E8B",
":. c #B77192",
">. c #9170A9",
",. c #AA7AA9",
"<. c #B862A9",
"1. c #A6559A",
"2. c #C87595",
"3. c #CD6F88",
"4. c #E87885",
"5. c #FF7E81",
"6. c #C669B6",
"7. c #7C8891",
"8. c #708FAC",
"9. c #74A7B5",
"0. c #5B88BB",
"q. c #5896CF",
"w. c #7886C5",
"e. c #6D8CD5",
"r. c #77B2D0",
"t. c #499DE6",
"y. c #5995E2",
"u. c #4CA2EB",
"i. c #56ACFB",
"p. c #58B6FC",
"a. c #58A7E8",
"s. c #66AAEB",
"d. c #67B6E8",
"f. c #64BBFA",
"g. c #66A3E2",
"h. c #6AC5FC",
"j. c #76CBFD",
"k. c #7AD1FC",
"l. c #70C6EC",
"z. c #78C1D7",
"x. c #8E918B",
"c. c #B98F86",
"v. c #98AD97",
"b. c #B6AA96",
"n. c #ABA88A",
"m. c #8F8BB3",
"M. c #B686AB",
"N. c #B18FB3",
"B. c #96ACA5",
"V. c #8CB3B4",
"C. c #B9B4A7",
"Z. c #B2AFAE",
"A. c #CC8B8D",
"S. c #F18C95",
"D. c #D1AE94",
"F. c #E5B588",
"G. c #C586A9",
"H. c #C695BB",
"J. c #C089B6",
"K. c #EB9BA6",
"L. c #CEB1B5",
"P. c #F6A7A8",
"I. c #FCB6B8",
"U. c #EEAFB3",
"Y. c #B5D3B4",
"T. c #ADC296",
"R. c #D5CB91",
"E. c #E9C78E",
"W. c #E9C795",
"Q. c #F5D498",
"!. c #ECD98C",
"~. c #FCE888",
"^. c #EAE295",
"/. c #D1CDB4",
"(. c #EBE7A9",
"). c #F6EDB6",
"_. c #FDF5BB",
"`. c #F4E6AF",
"'. c #DADEB7",
"]. c #8D94CD",
"[. c #8DB2D4",
"{. c #B5B2D0",
"}. c #8DB6E6",
"|. c #A598CC",
" X c #CF9BC8",
".X c #CAA7C6",
"XX c #D4A6CC",
"oX c #D8BAD5",
"OX c #D0B1CD",
"+X c #E5B7DD",
"@X c #E9B4CC",
"#X c #EAB7E1",
"$X c #94D1D8",
"%X c #ADCDCE",
"&X c #86D9FC",
"*X c #91D5F8",
"=X c #AFD3EF",
"-X c #B7D8F4",
";X c #A9D0EC",
":X c #8CE2FF",
">X c #94E5FF",
",X c #A9E5FC",
"<X c #B9E8FD",
"1X c #B8E3E1",
"2X c #BAE2D8",
"3X c #C8C9C6",
"4X c #DAC8D8",
"5X c #D3D4D4",
"6X c #D8D9DB",
"7X c #CDCDD5",
"8X c #E9C8C7",
"9X c #F6C7C7",
"0X c #FAD7D9",
"qX c #EED3D2",
"wX c #FEEDCC",
"eX c #FBE8C8",
"rX c #FDF8C6",
"tX c #F8EBD5",
"yX c #FDF2D2",
"uX c #FBF6DA",
"iX c #E9EDD4",
"pX c #CFD3E6",
"aX c #ECC5E6",
"sX c #EACAE5",
"dX c #E9DAE8",
"fX c #F1D2EC",
"gX c #F2DDEE",
"hX c #F3D8EF",
"jX c #D9E3E7",
"kX c #C7EAFA",
"lX c #DCEAF7",
"zX c #D7F3FB",
"xX c #CDEEF1",
"cX c #ECE3EC",
"vX c #ECECEE",
"bX c #E4E4E8",
"nX c #FBEBED",
"mX c #F6E5E8",
"MX c #EAF5E9",
"NX c #FCFAE4",
"BX c #FAF5EA",
"VX c #FDFAED",
"CX c #F6F6E7",
"ZX c #E8EDF2",
"AX c #F4EBF2",
"SX c #ECFAFE",
"DX c #E8F5FC",
"FX c #FDFCF3",
"GX c #F5FAFC",
"HX c #FEFEFE",
"JX c #F7F5F7",
"KX c #DDEED2",
/* pixels */
"                                                      B.B.V.V.9.z.r.d.d.d.                                                      ",
"                                            G H T.R.'.KXMXMXMXGXFXSXMXxXxX;Xk.l.p.                                              ",
"                                        Q R.(.uXFXHXHXHXGXHXHXFXGXHXHXHXHXHXGXGXzX,Xl.p.                                        ",
"                                  W ! (.NXFXHXFXHXFXHXFXVXuXiXKXiXMXMXFXHXHXHXHXHXHXGXzX&Xp.                                    ",
"                              W  .(.FXFXHXFXFXCX).^.| Q H G G v.v.v.v.v.V.%X2XxXVXGXHXHXHXDX:Xp.                                ",
"                            Q ^.VXHXFXHXNX(. .I Z Z D D D D D D D S S S S x.7.7.9.$XxXHXHXHXHXzXk.p.                            ",
"                        W  .uXFXFXFXuX!.I Z Z Z Z L J U U 0 J J 0 0 0 0 0 0 D S S 7.8.z.1XHXHXHXHX,Xp.                          ",
"                      H !.FXFXHXNX^.I Z Z L W U U U n n n w w w w w k w k k k J A Z S x.8.r.xXHXHXHXzXh.                        ",
"                    Q (.HXFXHX_.$.L D H W ~ ! R R R T T m m c N N N N N N N n n U U W F x.B.9.$XGXHXHXSXk.p.                    ",
"                  W ).FXHXFX^.Q n.C.3X6XjXmXZXJXFXGXHXHXHXHXHXHXMXFXGXFXHXHXHXGXJXZXZXlXpX;X[.g.z.xXHXHXGX&Xi.                  ",
"                W ).GXHXCX!.H b.C.5XjXZXBXJXHXHXHXHXHXHXHXHXHXHXHXHXHXHXHXHXHXHXHXGXJXDXZXjX=X;X[.9.1XHXHXGXk.p.                ",
"              c.qXHXHXNX| F b./.6XbXAXJXGXHXHXHXHXHXHXHXHXHXHXHXHXHXHXHXHXHXHXHXHXHXHXHXJXDXbXpX%Xx.9.1XHXHXGXj.p.              ",
"            c./.HXHXFX| Z b.3X6X4X.XXXXXAXHXHXmXP.P.P.P.P.P.P.P.P.P.P.P.I.P.I.I.I.I.I.I.I.nXJXZXpXG v.9.2XFXHXSXl.              ",
"            D.GXHXHXR.A Z L.6XvX.X=.=.=.gXHXHXI.* * + + o o o @ * * * = ; ; ; ; 1 1 5 7 7 0XGXJXbXI G x.9.xXHXHXzXp.            ",
"          2.mXHXHX/.E F L /.vXGXXX=.-.-.dXHXHXI.* + + + @ @ * * * = = ; ; ; 5 5 7 7 7 8 8 0XHXHXuX$.! G m.9.zXHXHX,Xd.          ",
"        3.8XHXHXmXE $ K U eXJXHXXX-.-.;.dXHXHXU.+ + + + o * * * = ; ; ; 5 5 5 7 7 8 8 8 8 hXHXHXNX' ' I C.8.V.FXHXGXl.          ",
"        A.HXHXHXA.:.K U Y iXHXHXAXcXdXcXHXHXHXJXmXmXmXtXgXmXmXnXmXnXnXnXnXnXnXnXnXnXnXnXnXHXHXHXNX_ ' R c.V.m.%XFXGXxXd.        ",
"      , 9XHXHX8X4 c.P ^ m eXHXHXHXHXHXHXHXHXHXHXHXHXHXHXHXHXHXHXHXHXHXHXHXHXHXHXHXHXHXHXHXHXHXHXNX_ / / D.|.m.V.MXHXHX$X        ",
"      4.FXHXJX4.2.A.P m M yXHXHXHXHXHXHXHXHXHXHXHXHXHXHXHXHXHXHXHXHXHXHXHXHXHXHXHXHXHXHXHXHXHXHXMX_ B V R.N.N.B.Y.HXGXzXr.      ",
"    2 @XHXHX@X3 G.D.z m m wXHXHXHXHXHXHXHXHXHXHXHXHXHXHXHXHXHXHXHXHXHXHXHXHXHXHXHXHXHXHXHXHXHXHXuX( / M E OXm.V.v.KXHXHX$X      ",
"    6 nXHXFX4.3.L.D.z c x wXHXHX-Xa.a.a.DXHXHX`.v C V / _ _ ` ` { o.o.o.o.@.@.@.@.@.@.o.o.o.o.{ ` B V M F.N.N.{.B.Y.HXHXjXr.    ",
"    S.HXHX0X, 2.oXD.c s x wXHXHX=Xt.t.t.lXHXHXQ.b C V B / ( ) ) ] { [ [ [ O.O.O.O.O.O.[ ] ] ) ( B B M v | H.L.{.Z.n.CXHXFXV.    ",
"  2 9XHXHXK.3.H.4XF.s f f eXHXHX=Xu.t.u.lXHXHX`.b V B B ( ) ) ] } [ O.O.O.O.O.O.O.O.[ { ) _ ( ( B V v v 9 OXM.5XY.n.(.FXHXY.    ",
"  2 nXHXHX6 3.XX4XW.a s i eXHXHX;Xt.t.u.DXHXFX`.V B ( ..X...~...~.~.!.~.~.!.~.~.!.~.....!.X.X.X.R R ' ^ W.N.N.4X3XZ.T.HXHXKXB.  ",
"  4.HXHX0X2 2.oX6XW.t u p eXHXHX;Xt.u.u.DXHXHX`.B B ) U.sX#X+XfX+X#XfX#X#XfX#X#XsX+X#X#XXXaX+X X+X XH.oXJ.J..X5X7XZ.H NXHXVXv.  ",
"  K.HXHXI.2 H.aXdXF.t u p eXHXHX=Xu.u.a.zXHXHX).( _ ) 8X#X+XfX#X#XfX#XaXhX#XaXfXXXaXaXXXaXXX XoX X XOXJ.H..X,.dXjXZ.n.'.HXFXT.  ",
"  @XHXHXK.3.H.sXbXE.r u p eXHXHX=Xu.i.p.DXHXHX).) ) } 8X+XfXhXJXAXgXHXgXhXHXhXgXHXfXgXJXsXcXAXaXcXdX4XAX4XoXbX6XjX/.n.R.HXFX^.  ",
", 0XHXHX4.3.L.dXbXE.e u p eXHXHX-Xi.i.f.DXHXHX_.) } [ U.fX#XHXHXHXHXHXHXHXHXHXHXHXHXHXHXHXHXHXHXHXHXHXHXHXHXGXJXbX3Xb.| FXGX(.n.",
"3 nXHXHX6 2.OXdXcXE.e u u eXHXHX-Xi.f.f.DXHXHX_.} } [ eX+XaXHXHXHXHXHXHXHXHXHXHXHXHXHXHXHXHXHXHXHXHXHXHXHXHXHXJXbX7Xb.Q HXFX).G ",
"3.BXHXnX6 2.oXdXvXE.y u i eXHXHX-Xf.f.f.DXHXHX_.[ [ O.9XaXfXHXHXHXHXHXHXHXHXHXHXHXHXHXHXHXHXHXHXHXHXHXHXHXHXHXGXMX5XC.I NXHXiXG ",
"3.HXHXmX3 G.oXgXvXE.y u f eXHXHX<Xf.f.j.DXHXHX_.[ O.O.8XfX#XHXHXHXHXHXHXHXHXHXHXHXHXHXHXHXHXHXHXHXHXHXHXHXHXHXGXvX5XC.I uXFXuXH ",
":.HXHXgX3 G.oXcXvXQ.u i f eXHXHX-Xh.j.k.SXHXHXrXO.O.O.eX#XsXHXHXHXHXHXHXHXHXHXHXHXHXHXHXHXHXHXHXHXHXHXHXHXHXHXHXZX5XC.H uXHXuXI ",
",.HXHXmX3.J.oXgXvXE.u i f wXHXHXkXh.k.k.SXHXHX_.O.O.O.9XaXfXHXHXHXHXHXHXHXHXHXHXHXHXHXHXHXHXHXHXHXHXHXHXHXHXHXGXvX6XC.W yXFXNXQ ",
"M.GXHXvX3.M.oXcXAXQ.s f g wXHXHXkXj.k.&XSXHXHXrX+.+.+.8XfX#XHXHXHXHXHXHXHXHXHXHXHXHXHXHXHXHXHXHXHXHXHXHXHXHXHXHXvX5XC.H yXFXuXQ ",
"m.JXHXAX3.6.oXlXAXQ.s f g wXHXHXkXj.k.&XSXHXHXrX+.+.O.eX#XaXHXHXHXHXHXHXHXHXHXHXHXHXHXHXHXHXHXHXHXHXHXHXHXHXHXGXvX5XC.W uXFXuXI ",
"].ZXHXJXA.M.oXdXvXQ.f f x wXHXHXkXj.&X:XSXHXHXrX+.+.O.@XaXfXHXHXHXHXHXHXHXHXHXHXHXHXHXHXHXHXHXHXHXHXHXHXHXHXHXJXvX5XC.I NXGXrXW ",
"].xXHXHXM.,.OXdXvXQ.f g x wXHXHXkXk.:X:XSXHXHXrX+.O.O.8X#X+XHXHXHXHXHXHXHXHXHXHXHXHXHXHXHXHXHXHXHXHXHXHXHXHXHXGXbX5Xb.I HXFX).W ",
"  pXHXHX.X,.OXdXvXQ.s x b yXHXHXkX&X:X:XSXHXHXrX+.O.O.eX+XsXHXHXHXHXHXHXHXHXHXHXHXHXHXHXHXHXHXHXHXHXHXHXHXHXHXJXbX3Xb. .FXHX(.  ",
"  }.GXHX=X,.{.sXcXQ.h g b wXHXHXkX&X:X:XGXHXHX_.O.O.[ o.o.` o.` ` / / / M M M v c x x c c s s c c c x v Q.HXHXJXbX/.n.!.FXHX!.  ",
"  }.HXHXlX,.|.pXjXQ.h x v yXHXHXkX:X:X>XSXHXHX_.[ [ } ] ) ) B B V M b b x h f i i i p y y y y y y i f g Q.HXGXAX6XC.H (.HXFX .  ",
"  s.DXHXGX].|.4XpXQ.c x v wXHXHXzX:X:X>XSXHXHX_.O.} ] ) ) B B V C v b g g h j i i i y y y y y p i i f g E.GXcXMX7XC.W uXHXNXI   ",
"  s.<XHXHX}.].{.pXW.z x v yXHXHXzX,X,X,XGXHXHXrX~.#.#.#.#.#...` ` ' ' ' T T T T T Y Y m Y Y m T m f g x X..XoX6X3Xb.! FXFX).I   ",
"    *XHXHXkX].{.pXW.c c v wXHXHXHXHXHXHXHXHXHXHXHXHXHXHXHXHXHXHXHXHXHXHXHXHXHXHXHXHXHXHXHXHXHXHXyXh g v E #XN.6XL.G ^.HXFX!.    ",
"    i.GXHXHXs.].{.D.l c M wXHXHXHXHXHXHXHXHXHXHXHXHXHXHXHXHXHXHXHXHXHXHXHXHXHXHXHXHXHXHXHXHXHXHXyXh x M F. X.XL.b.H uXHXVX .    ",
"    i.,XHXGX;Xe.}.D.z c v yXHXHXHXHXHXHXHXHXHXHXFXHXHXHXHXHXHXHXHXHXHXHXHXHXHXHXHXHXHXHXHXHXHXHXuXg b v F.XX.XL.c.R.FXHX).I     ",
"      h.GXHXGXs.].Z.J z c wXHXHX+X6.6.6.AXHXHX0XS.5.8 8 7 5 9 1 - - - : : % % % % % % % % qXHXHXuXx v M ~ .XM.N.E tXHXHXR.      ",
"      i.<XHXHX,Xg.m.A k m wXHXHXoX=.1.=.gXHXHX9X1 ; ; = = * @ o o o O O O . . . . . . . X 9XHXHXuXv M T W.N.b.:.R.HXHXiXW       ",
"        h.GXHXSXf.w.D J z tXHXHXXX=.=.=.gXHXHX@X; ; = * * o o o o O O . . . . . . . . . O 9XHXHXuXM V R A.M.:.A.MXHXHXR.        ",
"        i.,XHXGXkXa.7.D J qXGXHXoX<.<.<.gXHXHX9X5.8 8 9 9 9 9 9 - - - - - - & & - & - - - qXHXHXuXT R R A.:.$ qXGXHXiXc.        ",
"          p.DXHXHX*X0.x.A 4XZXGXGXGXHXHXHXHXHXHXHXHXHXHXHXHXHXHXHXHXHXHXHXHXHXHXHXHXHXHXHXHXHXHXtXT R E 3.3.K.GXGXFXD.          ",
"            j.GXHXGXl.0.x.{.lXDXJXGXGXHXHXHXHXHXHXHXHXHXHXHXHXHXHXHXHXHXHXHXHXHXHXHXHXHXHXHXHXJXtXR E E < A.JXHXHX/.2.          ",
"            i.,XGXHXGXl.0.[.-XlXDXGXHXHXHXHXHXHXHXHXHXHXHXHXHXHXHXHXHXHXHXHXHXHXHXHXHXHXHXHXAXAX4XE 4 < 6 nXHXHXqX3.            ",
"              p.<XHXHXDXd.g.}.;X1XjXMXAXBXFXVXVXFXVXVXVXVXVXBXBXBXVXBXBXmXnXnXBXBXVXVXVXJXnXdX4XL.4 > 6 nXHXHXnX3.              ",
"                p.kXGXHXGXl.q.&.S 0 k l l a s u u p u y y e y e e e e e e e e y u a s N z ^ P E 4 > 4.nXHXHXnX4.                ",
"                  p.kXHXHXGX*Xq.8.S A A k w q q a e t e e e e e e e e e e r r d a a z z ^ K 4 < - S.FXHXHXnX4.,                 ",
"                    p.kXHXGXHX,Xt.0.7.$ A 0 k k q q q r r r r r e r r r r d q q q k k 4 # 4 > 6 @XHXHXHXmX4.,                   ",
"                      p.,XGXHXGXSX&Xq.0.8.&.x.$ # F # # E # # L # # P # # K # $ $ $ $ $ > > K.nXHXHXHXqX6                       ",
"                        p.j.SXHXHXHXzXj.t.y.*.w.%.%.].m.>.N.m.>.N.,.>.m.1.,.M.1.1.:.< 3 K.gXHXHXHXJXU.6                         ",
"                          i.p.,XGXHXGXHXzX*Xd.t.y.*.*.%.%.%.%.>.>.>.>.>.>.>.1.1.:.2.@XAXHXHXHXHX0X4.6                           ",
"                              p.h.kXHXHXHXGXHXzX,X&Xd.a.e.g.e.w.w.%.w.m.m.N.Z.5XvXHXHXHXGXHXmXK.3.                              ",
"                                  p.h.<XGXHXHXGXJXGXHXGXzXkXkXkXkXxXlXDXJXHXHXHXHXHXHXGXdXL.2.                                  ",
"                                      p.p.&XkXGXHXHXHXGXHXHXHXHXGXHXHXHXHXHXHXHXGXZX7XN.,.                                      ",
"                                            p.p.j.>X<XzXSXGXHXGXHXHXGXSXzXlX=X}.].].                                            ",
"                                                    i.p.p.p.p.f.f.p.s.s.s.g.                                                    "
};
